<mxfile host="app.diagrams.net" modified="2023-07-01T11:03:17.006Z" agent="Mozilla/5.0 (Windows NT 10.0; Win64; x64) AppleWebKit/537.36 (KHTML, like Gecko) Chrome/114.0.0.0 Safari/537.36" etag="wnjLHfibdo9AfSkkU6n8" version="21.5.0" type="device">
  <diagram name="Page-1" id="TRc2A4nGIRnEcF_crbLT">
    <mxGraphModel dx="2350" dy="881" grid="1" gridSize="10" guides="1" tooltips="1" connect="1" arrows="1" fold="1" page="1" pageScale="1" pageWidth="850" pageHeight="1100" math="0" shadow="0">
      <root>
        <mxCell id="0" />
        <mxCell id="1" parent="0" />
        <mxCell id="EvznsGrwns7zW4yEI_tT-1" value="Idle&lt;br&gt;&amp;nbsp;" style="rounded=1;whiteSpace=wrap;html=1;" parent="1" vertex="1">
          <mxGeometry x="-178" y="160" width="120" height="60" as="geometry" />
        </mxCell>
        <mxCell id="EvznsGrwns7zW4yEI_tT-2" value="Autonomous Vehicle" style="text;html=1;strokeColor=none;fillColor=none;align=center;verticalAlign=middle;whiteSpace=wrap;rounded=0;fontSize=30;" parent="1" vertex="1">
          <mxGeometry x="-298" y="20" width="330" height="30" as="geometry" />
        </mxCell>
        <mxCell id="EvznsGrwns7zW4yEI_tT-9" style="edgeStyle=orthogonalEdgeStyle;rounded=0;orthogonalLoop=1;jettySize=auto;html=1;entryX=0;entryY=0.5;entryDx=0;entryDy=0;" parent="1" source="EvznsGrwns7zW4yEI_tT-3" target="EvznsGrwns7zW4yEI_tT-4" edge="1">
          <mxGeometry relative="1" as="geometry" />
        </mxCell>
        <mxCell id="EvznsGrwns7zW4yEI_tT-3" value="Plant_Detection" style="rounded=1;whiteSpace=wrap;html=1;" parent="1" vertex="1">
          <mxGeometry x="-178" y="532" width="120" height="60" as="geometry" />
        </mxCell>
        <mxCell id="EvznsGrwns7zW4yEI_tT-11" style="edgeStyle=orthogonalEdgeStyle;rounded=0;orthogonalLoop=1;jettySize=auto;html=1;entryX=0;entryY=0.5;entryDx=0;entryDy=0;" parent="1" source="EvznsGrwns7zW4yEI_tT-4" target="EvznsGrwns7zW4yEI_tT-5" edge="1">
          <mxGeometry relative="1" as="geometry" />
        </mxCell>
        <mxCell id="EvznsGrwns7zW4yEI_tT-4" value="Mode_Management" style="rounded=1;whiteSpace=wrap;html=1;" parent="1" vertex="1">
          <mxGeometry x="102" y="532" width="150" height="60" as="geometry" />
        </mxCell>
        <mxCell id="EvznsGrwns7zW4yEI_tT-57" style="edgeStyle=orthogonalEdgeStyle;rounded=0;orthogonalLoop=1;jettySize=auto;html=1;entryX=1;entryY=0.5;entryDx=0;entryDy=0;exitX=0.5;exitY=0;exitDx=0;exitDy=0;" parent="1" source="EvznsGrwns7zW4yEI_tT-5" target="EvznsGrwns7zW4yEI_tT-1" edge="1">
          <mxGeometry relative="1" as="geometry">
            <Array as="points">
              <mxPoint x="527" y="190" />
            </Array>
          </mxGeometry>
        </mxCell>
        <mxCell id="EvznsGrwns7zW4yEI_tT-5" value="User_Information_Update" style="rounded=1;whiteSpace=wrap;html=1;" parent="1" vertex="1">
          <mxGeometry x="452" y="532" width="150" height="60" as="geometry" />
        </mxCell>
        <mxCell id="EvznsGrwns7zW4yEI_tT-10" value="/ Plant_Position() ?" style="text;html=1;align=center;verticalAlign=middle;resizable=0;points=[];autosize=1;strokeColor=none;fillColor=none;" parent="1" vertex="1">
          <mxGeometry x="-33" y="532" width="120" height="30" as="geometry" />
        </mxCell>
        <mxCell id="EvznsGrwns7zW4yEI_tT-17" value="Mode_Management" style="text;html=1;strokeColor=none;fillColor=none;align=center;verticalAlign=middle;whiteSpace=wrap;rounded=0;fontSize=31;" parent="1" vertex="1">
          <mxGeometry x="-208" y="739" width="60" height="30" as="geometry" />
        </mxCell>
        <mxCell id="EvznsGrwns7zW4yEI_tT-20" style="edgeStyle=orthogonalEdgeStyle;rounded=0;orthogonalLoop=1;jettySize=auto;html=1;entryX=0;entryY=0.5;entryDx=0;entryDy=0;" parent="1" source="EvznsGrwns7zW4yEI_tT-18" target="EvznsGrwns7zW4yEI_tT-19" edge="1">
          <mxGeometry relative="1" as="geometry" />
        </mxCell>
        <mxCell id="EvznsGrwns7zW4yEI_tT-18" value="AV" style="rounded=1;whiteSpace=wrap;html=1;" parent="1" vertex="1">
          <mxGeometry x="-178" y="859" width="120" height="60" as="geometry" />
        </mxCell>
        <mxCell id="EvznsGrwns7zW4yEI_tT-23" style="edgeStyle=orthogonalEdgeStyle;rounded=0;orthogonalLoop=1;jettySize=auto;html=1;entryX=0.5;entryY=0;entryDx=0;entryDy=0;" parent="1" source="EvznsGrwns7zW4yEI_tT-19" target="EvznsGrwns7zW4yEI_tT-22" edge="1">
          <mxGeometry relative="1" as="geometry" />
        </mxCell>
        <mxCell id="EvznsGrwns7zW4yEI_tT-26" style="edgeStyle=orthogonalEdgeStyle;rounded=0;orthogonalLoop=1;jettySize=auto;html=1;" parent="1" source="EvznsGrwns7zW4yEI_tT-19" target="EvznsGrwns7zW4yEI_tT-25" edge="1">
          <mxGeometry relative="1" as="geometry" />
        </mxCell>
        <mxCell id="EvznsGrwns7zW4yEI_tT-58" style="edgeStyle=orthogonalEdgeStyle;rounded=0;orthogonalLoop=1;jettySize=auto;html=1;entryX=0.458;entryY=-0.031;entryDx=0;entryDy=0;entryPerimeter=0;" parent="1" source="EvznsGrwns7zW4yEI_tT-19" target="EvznsGrwns7zW4yEI_tT-18" edge="1">
          <mxGeometry relative="1" as="geometry">
            <Array as="points">
              <mxPoint x="182" y="810" />
              <mxPoint x="-123" y="810" />
            </Array>
          </mxGeometry>
        </mxCell>
        <mxCell id="EvznsGrwns7zW4yEI_tT-19" value="Plant_Observer" style="rounded=1;whiteSpace=wrap;html=1;" parent="1" vertex="1">
          <mxGeometry x="122" y="859" width="120" height="60" as="geometry" />
        </mxCell>
        <mxCell id="EvznsGrwns7zW4yEI_tT-21" value="Plant_Position() ! /" style="text;html=1;align=center;verticalAlign=middle;resizable=0;points=[];autosize=1;strokeColor=none;fillColor=none;" parent="1" vertex="1">
          <mxGeometry x="-33" y="860" width="120" height="30" as="geometry" />
        </mxCell>
        <mxCell id="EvznsGrwns7zW4yEI_tT-38" style="edgeStyle=orthogonalEdgeStyle;rounded=0;orthogonalLoop=1;jettySize=auto;html=1;entryX=0;entryY=0.5;entryDx=0;entryDy=0;exitX=0.5;exitY=1;exitDx=0;exitDy=0;" parent="1" source="EvznsGrwns7zW4yEI_tT-22" target="EvznsGrwns7zW4yEI_tT-37" edge="1">
          <mxGeometry relative="1" as="geometry" />
        </mxCell>
        <mxCell id="EvznsGrwns7zW4yEI_tT-22" value="Weeder" style="rounded=1;whiteSpace=wrap;html=1;" parent="1" vertex="1">
          <mxGeometry x="2" y="1069" width="120" height="60" as="geometry" />
        </mxCell>
        <mxCell id="EvznsGrwns7zW4yEI_tT-24" value="Weed_Identified() ! /" style="text;html=1;align=center;verticalAlign=middle;resizable=0;points=[];autosize=1;strokeColor=none;fillColor=none;" parent="1" vertex="1">
          <mxGeometry x="-63" y="1009" width="130" height="30" as="geometry" />
        </mxCell>
        <mxCell id="EvznsGrwns7zW4yEI_tT-40" style="edgeStyle=orthogonalEdgeStyle;rounded=0;orthogonalLoop=1;jettySize=auto;html=1;entryX=1;entryY=0.5;entryDx=0;entryDy=0;exitX=0.5;exitY=1;exitDx=0;exitDy=0;" parent="1" source="EvznsGrwns7zW4yEI_tT-25" target="EvznsGrwns7zW4yEI_tT-37" edge="1">
          <mxGeometry relative="1" as="geometry" />
        </mxCell>
        <mxCell id="EvznsGrwns7zW4yEI_tT-25" value="Crop_Protection" style="rounded=1;whiteSpace=wrap;html=1;" parent="1" vertex="1">
          <mxGeometry x="292" y="1069" width="120" height="60" as="geometry" />
        </mxCell>
        <mxCell id="EvznsGrwns7zW4yEI_tT-27" value="Diseased_Plant_Identified! ()" style="text;html=1;align=center;verticalAlign=middle;resizable=0;points=[];autosize=1;strokeColor=none;fillColor=none;" parent="1" vertex="1">
          <mxGeometry x="347" y="957" width="180" height="30" as="geometry" />
        </mxCell>
        <mxCell id="EvznsGrwns7zW4yEI_tT-31" style="edgeStyle=orthogonalEdgeStyle;rounded=0;orthogonalLoop=1;jettySize=auto;html=1;entryX=0.5;entryY=0;entryDx=0;entryDy=0;" parent="1" source="EvznsGrwns7zW4yEI_tT-28" target="EvznsGrwns7zW4yEI_tT-1" edge="1">
          <mxGeometry relative="1" as="geometry" />
        </mxCell>
        <mxCell id="EvznsGrwns7zW4yEI_tT-28" value="" style="ellipse;whiteSpace=wrap;html=1;aspect=fixed;fillColor=#121212;" parent="1" vertex="1">
          <mxGeometry x="-293" y="98" width="30" height="30" as="geometry" />
        </mxCell>
        <mxCell id="EvznsGrwns7zW4yEI_tT-30" style="edgeStyle=orthogonalEdgeStyle;rounded=0;orthogonalLoop=1;jettySize=auto;html=1;entryX=0;entryY=0.5;entryDx=0;entryDy=0;" parent="1" source="EvznsGrwns7zW4yEI_tT-29" target="EvznsGrwns7zW4yEI_tT-18" edge="1">
          <mxGeometry relative="1" as="geometry" />
        </mxCell>
        <mxCell id="EvznsGrwns7zW4yEI_tT-29" value="" style="ellipse;whiteSpace=wrap;html=1;aspect=fixed;fillColor=#121212;" parent="1" vertex="1">
          <mxGeometry x="-288" y="874" width="30" height="30" as="geometry" />
        </mxCell>
        <mxCell id="EvznsGrwns7zW4yEI_tT-32" value="Init" style="text;html=1;align=center;verticalAlign=middle;resizable=0;points=[];autosize=1;strokeColor=none;fillColor=none;" parent="1" vertex="1">
          <mxGeometry x="-333" y="98" width="40" height="30" as="geometry" />
        </mxCell>
        <mxCell id="EvznsGrwns7zW4yEI_tT-33" value="Init" style="text;html=1;align=center;verticalAlign=middle;resizable=0;points=[];autosize=1;strokeColor=none;fillColor=none;" parent="1" vertex="1">
          <mxGeometry x="-293" y="839" width="40" height="30" as="geometry" />
        </mxCell>
        <mxCell id="EvznsGrwns7zW4yEI_tT-43" style="edgeStyle=orthogonalEdgeStyle;rounded=0;orthogonalLoop=1;jettySize=auto;html=1;entryX=0.5;entryY=1;entryDx=0;entryDy=0;" parent="1" source="EvznsGrwns7zW4yEI_tT-37" target="EvznsGrwns7zW4yEI_tT-18" edge="1">
          <mxGeometry relative="1" as="geometry">
            <Array as="points">
              <mxPoint x="222" y="1309" />
              <mxPoint x="-118" y="1309" />
            </Array>
          </mxGeometry>
        </mxCell>
        <mxCell id="EvznsGrwns7zW4yEI_tT-37" value="Receive_Ack" style="rounded=1;whiteSpace=wrap;html=1;" parent="1" vertex="1">
          <mxGeometry x="162" y="1179" width="120" height="60" as="geometry" />
        </mxCell>
        <mxCell id="EvznsGrwns7zW4yEI_tT-39" value="Weeder.Send_Ack()/" style="text;html=1;align=center;verticalAlign=middle;resizable=0;points=[];autosize=1;strokeColor=none;fillColor=none;" parent="1" vertex="1">
          <mxGeometry x="-43" y="1157" width="130" height="30" as="geometry" />
        </mxCell>
        <mxCell id="EvznsGrwns7zW4yEI_tT-41" value="Crop_Protection.Send_Ack() /" style="text;html=1;align=center;verticalAlign=middle;resizable=0;points=[];autosize=1;strokeColor=none;fillColor=none;" parent="1" vertex="1">
          <mxGeometry x="352" y="1157" width="180" height="30" as="geometry" />
        </mxCell>
        <mxCell id="EvznsGrwns7zW4yEI_tT-44" value="/ Update_Info()&amp;nbsp;" style="text;html=1;align=center;verticalAlign=middle;resizable=0;points=[];autosize=1;strokeColor=none;fillColor=none;" parent="1" vertex="1">
          <mxGeometry x="-63" y="1287" width="110" height="30" as="geometry" />
        </mxCell>
        <mxCell id="EvznsGrwns7zW4yEI_tT-45" value="Update_info() /" style="text;html=1;align=center;verticalAlign=middle;resizable=0;points=[];autosize=1;strokeColor=none;fillColor=none;" parent="1" vertex="1">
          <mxGeometry x="262" y="532" width="100" height="30" as="geometry" />
        </mxCell>
        <mxCell id="EvznsGrwns7zW4yEI_tT-52" style="edgeStyle=orthogonalEdgeStyle;rounded=0;orthogonalLoop=1;jettySize=auto;html=1;entryX=1;entryY=0.5;entryDx=0;entryDy=0;" parent="1" source="EvznsGrwns7zW4yEI_tT-48" target="EvznsGrwns7zW4yEI_tT-51" edge="1">
          <mxGeometry relative="1" as="geometry" />
        </mxCell>
        <mxCell id="EvznsGrwns7zW4yEI_tT-48" value="Check_User_Connection&lt;br&gt;C &amp;lt;= 500" style="rounded=1;whiteSpace=wrap;html=1;" parent="1" vertex="1">
          <mxGeometry x="-198" y="325" width="160" height="60" as="geometry" />
        </mxCell>
        <mxCell id="EvznsGrwns7zW4yEI_tT-49" value="" style="endArrow=classic;html=1;rounded=0;exitX=0.5;exitY=1;exitDx=0;exitDy=0;entryX=0.5;entryY=0;entryDx=0;entryDy=0;" parent="1" source="EvznsGrwns7zW4yEI_tT-1" target="EvznsGrwns7zW4yEI_tT-48" edge="1">
          <mxGeometry width="50" height="50" relative="1" as="geometry">
            <mxPoint x="122" y="300" as="sourcePoint" />
            <mxPoint x="172" y="250" as="targetPoint" />
          </mxGeometry>
        </mxCell>
        <mxCell id="EvznsGrwns7zW4yEI_tT-50" value="" style="endArrow=classic;html=1;rounded=0;exitX=0.5;exitY=1;exitDx=0;exitDy=0;entryX=0.5;entryY=0;entryDx=0;entryDy=0;" parent="1" source="EvznsGrwns7zW4yEI_tT-48" target="EvznsGrwns7zW4yEI_tT-3" edge="1">
          <mxGeometry width="50" height="50" relative="1" as="geometry">
            <mxPoint x="122" y="300" as="sourcePoint" />
            <mxPoint x="172" y="250" as="targetPoint" />
          </mxGeometry>
        </mxCell>
        <mxCell id="f8gU_qK6NhudoToDMaCN-2" style="edgeStyle=orthogonalEdgeStyle;rounded=0;orthogonalLoop=1;jettySize=auto;html=1;entryX=1;entryY=0.5;entryDx=0;entryDy=0;" edge="1" parent="1" source="EvznsGrwns7zW4yEI_tT-51" target="f8gU_qK6NhudoToDMaCN-1">
          <mxGeometry relative="1" as="geometry" />
        </mxCell>
        <mxCell id="EvznsGrwns7zW4yEI_tT-51" value="Connection Failed" style="rounded=1;whiteSpace=wrap;html=1;" parent="1" vertex="1">
          <mxGeometry x="-478" y="325" width="120" height="60" as="geometry" />
        </mxCell>
        <mxCell id="EvznsGrwns7zW4yEI_tT-53" value="C&amp;gt; 500" style="text;html=1;align=center;verticalAlign=middle;resizable=0;points=[];autosize=1;strokeColor=none;fillColor=none;" parent="1" vertex="1">
          <mxGeometry x="-278" y="355" width="60" height="30" as="geometry" />
        </mxCell>
        <mxCell id="EvznsGrwns7zW4yEI_tT-54" value="/Abort()" style="text;html=1;align=center;verticalAlign=middle;resizable=0;points=[];autosize=1;strokeColor=none;fillColor=none;" parent="1" vertex="1">
          <mxGeometry x="-570" y="355" width="60" height="30" as="geometry" />
        </mxCell>
        <mxCell id="EvznsGrwns7zW4yEI_tT-55" value="{reset C}" style="text;html=1;align=center;verticalAlign=middle;resizable=0;points=[];autosize=1;strokeColor=none;fillColor=none;rotation=270;" parent="1" vertex="1">
          <mxGeometry x="-168" y="430" width="70" height="30" as="geometry" />
        </mxCell>
        <mxCell id="EvznsGrwns7zW4yEI_tT-56" value="Connection_Updated()" style="text;html=1;align=center;verticalAlign=middle;resizable=0;points=[];autosize=1;strokeColor=none;fillColor=none;rotation=90;" parent="1" vertex="1">
          <mxGeometry x="-168" y="440" width="140" height="30" as="geometry" />
        </mxCell>
        <mxCell id="f8gU_qK6NhudoToDMaCN-1" value="" style="ellipse;html=1;shape=endState;fillColor=#000000;strokeColor=#080808;" vertex="1" parent="1">
          <mxGeometry x="-630" y="340" width="30" height="30" as="geometry" />
        </mxCell>
        <mxCell id="f8gU_qK6NhudoToDMaCN-3" value="Stop" style="text;html=1;align=center;verticalAlign=middle;resizable=0;points=[];autosize=1;strokeColor=none;fillColor=none;" vertex="1" parent="1">
          <mxGeometry x="-640" y="370" width="50" height="30" as="geometry" />
        </mxCell>
        <mxCell id="f8gU_qK6NhudoToDMaCN-4" value="? User_Intervention_Required" style="text;html=1;align=center;verticalAlign=middle;resizable=0;points=[];autosize=1;strokeColor=none;fillColor=none;" vertex="1" parent="1">
          <mxGeometry x="262" y="562" width="180" height="30" as="geometry" />
        </mxCell>
      </root>
    </mxGraphModel>
  </diagram>
</mxfile>
